# xmcd CD database file
#
# Track frame offsets:
#	150
#	9833
#	23858
#	35502
#	46944
#	60577
#	72999
#	84147
#	96495
#	112886
#	125917
#	137224
#	149077
#	160645
#	173540
#	183492
#	199243
#	212385
#
# Disc length: 2971 seconds
#
# Revision: 0
# Processed by: cddbd v1.5.2PL0 Copyright (c) Steve Scherf et al.
# Submitted via: CDex 1.70beta2
#
DISCID=f60b9912
DTITLE=Oscar Peterson - Play The Best Of Kern and Porter - Kind Of Peterson CD-4
DYEAR=1958
DGENRE=Jazz
TTITLE0=Pick Yourself Up (Kern)
TTITLE1=A Fine Romance (Kern)
TTITLE2=Ol' Man River (Kern)
TTITLE3=Long Ago And Far Away (Kern)
TTITLE4=The Song Is You (Kern)
TTITLE5=Smoke Gets In Your Eyes (Kern)
TTITLE6=I Won't Dance (Kern)
TTITLE7=Lovely To Look At (Kern)
TTITLE8=The Way You Look Tonight (Kern)
TTITLE9=In The Still Of The Night (Porter)
TTITLE10=It's The Lovely (Porter)
TTITLE11=Easy To Love (Porter)
TTITLE12=Night And Day (Porter)
TTITLE13=I've Got You Under My Skin (Porter)
TTITLE14=I Love Paris (Porter)
TTITLE15=Love For Sale (Porter)
TTITLE16=It's All Right With Me (Porter)
TTITLE17=Every Time We Say Goodbye (Porter)
EXTD=YEAR: 1958
EXTT0=
EXTT1=
EXTT2=
EXTT3=
EXTT4=
EXTT5=
EXTT6=
EXTT7=
EXTT8=
EXTT9=
EXTT10=
EXTT11=
EXTT12=
EXTT13=
EXTT14=
EXTT15=
EXTT16=
EXTT17=
PLAYORDER=
